<?xml version="1.0" encoding="utf-8"?>
<!-- Generator: Adobe Illustrator 27.5.0, SVG Export Plug-In . SVG Version: 6.00 Build 0)  -->
<svg version="1.1" id="Layer_1" xmlnsSvg="http://www.w3.org/2000/svg"
	 xmlns="http://www.w3.org/2000/svg" xmlns:xlink="http://www.w3.org/1999/xlink" x="0px" y="0px" viewBox="0 0 321.3 300.9"
	 style="enable-background:new 0 0 321.3 300.9;" xml:space="preserve">
<style type="text/css">
	.st5{fill:#757575;stroke:#000000;stroke-opacity:0;}
</style>
<path class="st5" d="M278.3,12.1c-21.6,13.4-43.9,30.3-61,41.5c-17.5-6.1-36.6-9.5-56.8-9.5c-20,0-39.1,3.4-56.5,9.4
	C86.9,42.3,64.7,25.4,43.1,12.1c-36.6-22.6-31.3,114.2-29.6,147c-0.2,2.8-0.4,5.7-0.4,8.6c0,68.3,65.9,123.6,147.3,123.6
	s147.3-55.4,147.3-123.6c0-1.7-0.1-3.4-0.1-5.1C309.1,137.8,316.3-11.4,278.3,12.1z M104.1,214.4c-13.8,0-25-11.2-25-25
	s11.2-25,25-25s25,11.2,25,25S117.9,214.4,104.1,214.4z M217.2,214.4c-13.8,0-25-11.2-25-25s11.2-25,25-25s25,11.2,25,25
	S231,214.4,217.2,214.4z"/>
</svg>
